<svg width="264" height="8" viewBox="0 0 264 8" fill="none" xmlns="http://www.w3.org/2000/svg">
<path d="M-25.11 8.00099C-25.0533 8.0038 -24.9976 7.98455 -24.9548 7.94727C-24.9119 7.90999 -24.8851 7.85757 -24.88 7.80099V3.48099C-24.8825 3.45336 -24.8905 3.42651 -24.9034 3.40197C-24.9163 3.37744 -24.934 3.35571 -24.9554 3.33805C-24.9768 3.32038 -25.0015 3.30713 -25.028 3.29905C-25.0545 3.29097 -25.0824 3.28823 -25.11 3.29099H-30.21C-30.2259 3.29099 -30.2412 3.28467 -30.2524 3.27341C-30.2637 3.26216 -30.27 3.2469 -30.27 3.23099V1.49099C-30.2702 1.47403 -30.2642 1.45759 -30.2532 1.44471C-30.2421 1.43184 -30.2268 1.42341 -30.21 1.42099H-17.33C-17.33 1.42099 -17.27 1.42099 -17.27 1.49099V3.23099C-17.27 3.2469 -17.2763 3.26216 -17.2876 3.27341C-17.2988 3.28467 -17.3141 3.29099 -17.33 3.29099H-22.42C-22.4768 3.2853 -22.5337 3.30194 -22.5785 3.3374C-22.6233 3.37286 -22.6525 3.42436 -22.66 3.48099V7.80099C-22.6575 7.82992 -22.6493 7.85807 -22.6358 7.88382C-22.6224 7.90956 -22.604 7.93239 -22.5817 7.95098C-22.5594 7.96958 -22.5336 7.98357 -22.5058 7.99215C-22.4781 8.00073 -22.4489 8.00374 -22.42 8.00099H-6.42C-6.36326 8.0038 -6.30762 7.98455 -6.26475 7.94727C-6.22188 7.90999 -6.1951 7.85757 -6.19 7.80099V3.48099C-6.1925 3.45336 -6.20046 3.42651 -6.2134 3.40197C-6.22634 3.37744 -6.24401 3.35571 -6.2654 3.33805C-6.28678 3.32038 -6.31145 3.30713 -6.33799 3.29905C-6.36452 3.29097 -6.3924 3.28823 -6.42 3.29099H-11.52C-11.5359 3.29099 -11.5512 3.28467 -11.5624 3.27341C-11.5737 3.26216 -11.58 3.2469 -11.58 3.23099V1.49099C-11.5802 1.47403 -11.5742 1.45759 -11.5632 1.44471C-11.5521 1.43184 -11.5368 1.42341 -11.52 1.42099H1.41C1.42857 1.42099 1.44637 1.42836 1.4595 1.44149C1.47263 1.45462 1.48 1.47242 1.48 1.49099V3.23099C1.47758 3.24777 1.46915 3.2631 1.45627 3.27414C1.4434 3.28517 1.42696 3.29116 1.41 3.29099H-3.68C-3.7076 3.28823 -3.73547 3.29097 -3.76201 3.29905C-3.78854 3.30713 -3.81322 3.32038 -3.8346 3.33805C-3.85599 3.35571 -3.87366 3.37744 -3.8866 3.40197C-3.89954 3.42651 -3.9075 3.45336 -3.91 3.48099V7.80099C-3.90491 7.85757 -3.87812 7.90999 -3.83525 7.94727C-3.79237 7.98455 -3.73674 8.0038 -3.68 8.00099H12.32C12.3489 8.00374 12.3781 8.00073 12.4058 7.99215C12.4336 7.98357 12.4594 7.96958 12.4817 7.95098C12.504 7.93239 12.5224 7.90956 12.5358 7.88382C12.5493 7.85807 12.5575 7.82992 12.56 7.80099V3.48099C12.5525 3.42436 12.5233 3.37286 12.4785 3.3374C12.4337 3.30194 12.3768 3.2853 12.32 3.29099H7.28C7.26409 3.29099 7.24883 3.28467 7.23757 3.27341C7.22632 3.26216 7.22 3.2469 7.22 3.23099V1.49099C7.22 1.49099 7.22 1.42099 7.28 1.42099H20.16C20.1768 1.42341 20.1921 1.43184 20.2032 1.44471C20.2142 1.45759 20.2202 1.47403 20.22 1.49099V3.23099C20.22 3.2469 20.2137 3.26216 20.2024 3.27341C20.1912 3.28467 20.1759 3.29099 20.16 3.29099H15.06C15.0324 3.28823 15.0045 3.29097 14.978 3.29905C14.9515 3.30713 14.9268 3.32038 14.9054 3.33805C14.884 3.35571 14.8663 3.37744 14.8534 3.40197C14.8405 3.42651 14.8325 3.45336 14.83 3.48099V7.80099C14.8351 7.85757 14.8619 7.90999 14.9048 7.94727C14.9476 7.98455 15.0033 8.0038 15.06 8.00099H31.12C31.1767 8.0038 31.2324 7.98455 31.2752 7.94727C31.3181 7.90999 31.3449 7.85757 31.35 7.80099V3.48099C31.3425 3.42621 31.3147 3.37625 31.2721 3.34105C31.2295 3.30584 31.1752 3.28797 31.12 3.29099H26C25.9947 3.28187 25.992 3.27152 25.992 3.26099C25.992 3.25046 25.9947 3.24011 26 3.23099V1.49099C25.9939 1.48035 25.9906 1.46828 25.9906 1.45599C25.9906 1.4437 25.9939 1.43163 26 1.42099H38.9C38.9168 1.42341 38.9321 1.43184 38.9432 1.44471C38.9542 1.45759 38.9602 1.47403 38.96 1.49099V3.23099C38.96 3.23887 38.9584 3.24667 38.9554 3.25395C38.9524 3.26123 38.948 3.26784 38.9424 3.27341C38.9369 3.27899 38.9302 3.28341 38.923 3.28642C38.9157 3.28944 38.9079 3.29099 38.9 3.29099H33.8C33.7448 3.28797 33.6905 3.30584 33.6479 3.34105C33.6053 3.37625 33.5775 3.42621 33.57 3.48099V7.80099C33.5751 7.85757 33.6019 7.90999 33.6448 7.94727C33.6876 7.98455 33.7433 8.0038 33.8 8.00099H49.86C49.9167 8.0038 49.9724 7.98455 50.0152 7.94727C50.0581 7.90999 50.0849 7.85757 50.09 7.80099V3.48099C50.0875 3.45336 50.0795 3.42651 50.0666 3.40197C50.0537 3.37744 50.036 3.35571 50.0146 3.33805C49.9932 3.32038 49.9685 3.30713 49.942 3.29905C49.9155 3.29097 49.8876 3.28823 49.86 3.29099H44.76C44.7441 3.29099 44.7288 3.28467 44.7176 3.27341C44.7063 3.26216 44.7 3.2469 44.7 3.23099V1.49099C44.6998 1.47403 44.7058 1.45759 44.7169 1.44471C44.7279 1.43184 44.7432 1.42341 44.76 1.42099H57.64C57.64 1.42099 57.7 1.42099 57.7 1.49099V3.23099C57.7 3.2469 57.6937 3.26216 57.6824 3.27341C57.6712 3.28467 57.6559 3.29099 57.64 3.29099H52.55C52.4932 3.2853 52.4363 3.30194 52.3915 3.3374C52.3467 3.37286 52.3175 3.42436 52.31 3.48099V7.80099C52.3125 7.82992 52.3207 7.85807 52.3342 7.88382C52.3476 7.90956 52.366 7.93239 52.3883 7.95098C52.4106 7.96958 52.4364 7.98357 52.4642 7.99215C52.4919 8.00073 52.5211 8.00374 52.55 8.00099H68.55C68.6067 8.0038 68.6624 7.98455 68.7052 7.94727C68.7481 7.90999 68.7749 7.85757 68.78 7.80099V3.48099C68.7775 3.45336 68.7695 3.42651 68.7566 3.40197C68.7437 3.37744 68.726 3.35571 68.7046 3.33805C68.6832 3.32038 68.6585 3.30713 68.632 3.29905C68.6055 3.29097 68.5776 3.28823 68.55 3.29099H63.5C63.4841 3.29099 63.4688 3.28467 63.4576 3.27341C63.4463 3.26216 63.44 3.2469 63.44 3.23099V1.49099C63.4398 1.47403 63.4458 1.45759 63.4568 1.44471C63.4679 1.43184 63.4832 1.42341 63.5 1.42099H76.39C76.4068 1.42341 76.4221 1.43184 76.4332 1.44471C76.4442 1.45759 76.4502 1.47403 76.45 1.49099V3.23099C76.45 3.2469 76.4437 3.26216 76.4324 3.27341C76.4212 3.28467 76.4059 3.29099 76.39 3.29099H71.29C71.2624 3.28823 71.2345 3.29097 71.208 3.29905C71.1815 3.30713 71.1568 3.32038 71.1354 3.33805C71.114 3.35571 71.0963 3.37744 71.0834 3.40197C71.0705 3.42651 71.0625 3.45336 71.06 3.48099V7.80099C71.0651 7.85757 71.0919 7.90999 71.1348 7.94727C71.1776 7.98455 71.2333 8.0038 71.29 8.00099H87.29C87.3189 8.00374 87.3481 8.00073 87.3758 7.99215C87.4036 7.98357 87.4294 7.96958 87.4517 7.95098C87.474 7.93239 87.4924 7.90956 87.5058 7.88382C87.5193 7.85807 87.5275 7.82992 87.53 7.80099V3.48099C87.5225 3.42436 87.4933 3.37286 87.4485 3.3374C87.4037 3.30194 87.3468 3.2853 87.29 3.29099H82.2C82.1841 3.29099 82.1688 3.28467 82.1576 3.27341C82.1463 3.26216 82.14 3.2469 82.14 3.23099V1.49099C82.14 1.49099 82.14 1.42099 82.2 1.42099H95.08C95.0968 1.42341 95.1121 1.43184 95.1232 1.44471C95.1342 1.45759 95.1402 1.47403 95.14 1.49099V3.23099C95.14 3.2469 95.1337 3.26216 95.1224 3.27341C95.1112 3.28467 95.0959 3.29099 95.08 3.29099H90C89.9724 3.28823 89.9445 3.29097 89.918 3.29905C89.8915 3.30713 89.8668 3.32038 89.8454 3.33805C89.824 3.35571 89.8063 3.37744 89.7934 3.40197C89.7805 3.42651 89.7725 3.45336 89.77 3.48099V7.80099C89.7751 7.85757 89.8019 7.90999 89.8448 7.94727C89.8876 7.98455 89.9433 8.0038 90 8.00099H106.06C106.117 8.0038 106.172 7.98455 106.215 7.94727C106.258 7.90999 106.285 7.85757 106.29 7.80099V3.48099C106.283 3.42621 106.255 3.37625 106.212 3.34105C106.17 3.30584 106.115 3.28797 106.06 3.29099H101C100.984 3.29099 100.969 3.28467 100.958 3.27341C100.946 3.26216 100.94 3.2469 100.94 3.23099V1.49099C100.94 1.49099 100.94 1.42099 101 1.42099H113.88C113.897 1.42341 113.912 1.43184 113.923 1.44471C113.934 1.45759 113.94 1.47403 113.94 1.49099V3.23099C113.94 3.2469 113.934 3.26216 113.922 3.27341C113.911 3.28467 113.896 3.29099 113.88 3.29099H108.78C108.725 3.28797 108.67 3.30584 108.628 3.34105C108.585 3.37625 108.557 3.42621 108.55 3.48099V7.80099C108.555 7.85757 108.582 7.90999 108.625 7.94727C108.668 7.98455 108.723 8.0038 108.78 8.00099H115.41C115.467 8.0038 115.522 7.98455 115.565 7.94727C115.608 7.90999 115.635 7.85757 115.64 7.80099V6.80099C115.637 6.77336 115.63 6.74651 115.617 6.72197C115.604 6.69744 115.586 6.67571 115.565 6.65805C115.543 6.64038 115.519 6.62713 115.492 6.61905C115.465 6.61097 115.438 6.60823 115.41 6.61099H110.31C110.293 6.60857 110.278 6.60013 110.267 6.58726C110.256 6.57439 110.25 6.55794 110.25 6.54099V4.77099C110.25 4.75507 110.256 4.73981 110.268 4.72856C110.279 4.71731 110.294 4.71099 110.31 4.71099H115.41C115.438 4.71374 115.465 4.711 115.492 4.70293C115.519 4.69485 115.543 4.68159 115.565 4.66393C115.586 4.64626 115.604 4.62454 115.617 4.6C115.63 4.57547 115.637 4.54861 115.64 4.52099V0.200988C115.635 0.144404 115.608 0.0919844 115.565 0.0547049C115.522 0.0174255 115.467 -0.00182367 115.41 0.000987686H99.41C99.3533 -0.00182367 99.2976 0.0174255 99.2548 0.0547049C99.2119 0.0919844 99.1851 0.144404 99.18 0.200988V4.52099C99.1825 4.54861 99.1905 4.57547 99.2034 4.6C99.2163 4.62454 99.234 4.64626 99.2554 4.66393C99.2768 4.68159 99.3015 4.69485 99.328 4.70293C99.3545 4.711 99.3824 4.71374 99.41 4.71099H104.51C104.526 4.71099 104.541 4.71731 104.552 4.72856C104.564 4.73981 104.57 4.75507 104.57 4.77099V6.51099C104.57 6.52794 104.564 6.54439 104.553 6.55726C104.542 6.57014 104.527 6.57857 104.51 6.58099H91.62C91.62 6.58099 91.56 6.58099 91.56 6.51099V4.77099C91.56 4.75507 91.5663 4.73981 91.5776 4.72856C91.5888 4.71731 91.6041 4.71099 91.62 4.71099H96.71C96.7668 4.71668 96.8237 4.70003 96.8685 4.66457C96.9133 4.62911 96.9425 4.57762 96.95 4.52099V0.200988C96.9475 0.172053 96.9393 0.143901 96.9258 0.118156C96.9124 0.0924121 96.894 0.0695847 96.8717 0.0509913C96.8493 0.0323979 96.8236 0.0184065 96.7958 0.00982423C96.7681 0.00124195 96.7389 -0.00176132 96.71 0.000987686H80.66C80.6033 -0.00182367 80.5476 0.0174255 80.5048 0.0547049C80.4619 0.0919844 80.4351 0.144404 80.43 0.200988V4.52099C80.4325 4.54861 80.4405 4.57547 80.4534 4.6C80.4663 4.62454 80.484 4.64626 80.5054 4.66393C80.5268 4.68159 80.5515 4.69485 80.578 4.70293C80.6045 4.711 80.6324 4.71374 80.66 4.71099H85.76C85.7759 4.71099 85.7912 4.71731 85.8024 4.72856C85.8137 4.73981 85.82 4.75507 85.82 4.77099V6.51099C85.8202 6.52794 85.8142 6.54439 85.8032 6.55726C85.7921 6.57014 85.7768 6.57857 85.76 6.58099H72.87C72.8532 6.57857 72.8379 6.57014 72.8269 6.55726C72.8158 6.54439 72.8098 6.52794 72.81 6.51099V4.77099C72.81 4.75507 72.8163 4.73981 72.8276 4.72856C72.8388 4.71731 72.8541 4.71099 72.87 4.71099H78C78.0276 4.71374 78.0555 4.711 78.082 4.70293C78.1085 4.69485 78.1332 4.68159 78.1546 4.66393C78.176 4.64626 78.1937 4.62454 78.2066 4.6C78.2195 4.57547 78.2275 4.54861 78.23 4.52099V0.200988C78.2249 0.144404 78.1981 0.0919844 78.1552 0.0547049C78.1124 0.0174255 78.0567 -0.00182367 78 0.000987686H62C61.9711 -0.00176132 61.9419 0.00124195 61.9142 0.00982423C61.8864 0.0184065 61.8606 0.0323979 61.8383 0.0509913C61.816 0.0695847 61.7976 0.0924121 61.7842 0.118156C61.7707 0.143901 61.7625 0.172053 61.76 0.200988V4.52099C61.7675 4.57762 61.7967 4.62911 61.8415 4.66457C61.8863 4.70003 61.9432 4.71668 62 4.71099H67C67.017 4.71081 67.0334 4.7168 67.0463 4.72784C67.0591 4.73887 67.0676 4.7542 67.07 4.77099V6.51099C67.07 6.52018 67.0682 6.52928 67.0647 6.53778C67.0612 6.54627 67.056 6.55398 67.0495 6.56048C67.043 6.56699 67.0353 6.57214 67.0268 6.57566C67.0183 6.57918 67.0092 6.58099 67 6.58099H54.13C54.1132 6.57857 54.0979 6.57014 54.0868 6.55726C54.0758 6.54439 54.0698 6.52794 54.07 6.51099V4.77099C54.07 4.75507 54.0763 4.73981 54.0876 4.72856C54.0988 4.71731 54.1141 4.71099 54.13 4.71099H59.23C59.2576 4.71374 59.2855 4.711 59.312 4.70293C59.3385 4.69485 59.3632 4.68159 59.3846 4.66393C59.406 4.64626 59.4237 4.62454 59.4366 4.6C59.4495 4.57547 59.4575 4.54861 59.46 4.52099V0.200988C59.4549 0.144404 59.4281 0.0919844 59.3852 0.0547049C59.3424 0.0174255 59.2867 -0.00182367 59.23 0.000987686H43.17C43.1133 -0.00182367 43.0576 0.0174255 43.0148 0.0547049C42.9719 0.0919844 42.9451 0.144404 42.94 0.200988V4.52099C42.9475 4.57576 42.9753 4.62572 43.0179 4.66093C43.0605 4.69613 43.1148 4.71401 43.17 4.71099H48.27C48.2779 4.71099 48.2857 4.71254 48.293 4.71555C48.3002 4.71857 48.3069 4.72299 48.3124 4.72856C48.318 4.73413 48.3224 4.74075 48.3254 4.74803C48.3284 4.75531 48.33 4.76311 48.33 4.77099V6.51099C48.33 6.51099 48.33 6.58099 48.27 6.58099H35.39C35.3732 6.57857 35.3579 6.57014 35.3468 6.55726C35.3358 6.54439 35.3298 6.52794 35.33 6.51099V4.77099C35.33 4.75507 35.3363 4.73981 35.3476 4.72856C35.3588 4.71731 35.3741 4.71099 35.39 4.71099H40.49C40.5452 4.71401 40.5995 4.69613 40.6421 4.66093C40.6847 4.62572 40.7125 4.57576 40.72 4.52099V0.200988C40.7149 0.144404 40.6881 0.0919844 40.6452 0.0547049C40.6024 0.0174255 40.5467 -0.00182367 40.49 0.000987686H24.43C24.3733 -0.00182367 24.3176 0.0174255 24.2748 0.0547049C24.2319 0.0919844 24.2051 0.144404 24.2 0.200988V4.52099C24.2025 4.54861 24.2105 4.57547 24.2234 4.6C24.2363 4.62454 24.254 4.64626 24.2754 4.66393C24.2968 4.68159 24.3215 4.69485 24.348 4.70293C24.3745 4.711 24.4024 4.71374 24.43 4.71099H29.53C29.5459 4.71099 29.5612 4.71731 29.5724 4.72856C29.5837 4.73981 29.59 4.75507 29.59 4.77099V6.51099C29.5902 6.52794 29.5842 6.54439 29.5732 6.55726C29.5621 6.57014 29.5468 6.57857 29.53 6.58099H16.65C16.65 6.58099 16.59 6.58099 16.59 6.51099V4.77099C16.59 4.75507 16.5963 4.73981 16.6076 4.72856C16.6188 4.71731 16.6341 4.71099 16.65 4.71099H21.74C21.7697 4.71669 21.8002 4.71623 21.8297 4.70962C21.8592 4.70301 21.887 4.6904 21.9114 4.67257C21.9357 4.65475 21.9562 4.63209 21.9715 4.60601C21.9867 4.57993 21.9964 4.55099 22 4.52099V0.200988C21.9975 0.172053 21.9893 0.143901 21.9758 0.118156C21.9624 0.0924121 21.944 0.0695847 21.9217 0.0509913C21.8994 0.0323979 21.8736 0.0184065 21.8458 0.00982423C21.8181 0.00124195 21.7889 -0.00176132 21.76 0.000987686H5.69C5.63326 -0.00182367 5.57763 0.0174255 5.53476 0.0547049C5.49189 0.0919844 5.4651 0.144404 5.46 0.200988V4.52099C5.46251 4.54861 5.47046 4.57547 5.4834 4.6C5.49634 4.62454 5.51401 4.64626 5.5354 4.66393C5.55678 4.68159 5.58146 4.69485 5.60799 4.70293C5.63453 4.711 5.6624 4.71374 5.69 4.71099H10.79C10.8059 4.71099 10.8212 4.71731 10.8324 4.72856C10.8437 4.73981 10.85 4.75507 10.85 4.77099V6.51099C10.8502 6.52794 10.8442 6.54439 10.8332 6.55726C10.8221 6.57014 10.8068 6.57857 10.79 6.58099H-2.1C-2.11678 6.57857 -2.13212 6.57014 -2.14315 6.55726C-2.15419 6.54439 -2.16017 6.52794 -2.16 6.51099V4.77099C-2.16 4.75507 -2.15368 4.73981 -2.14243 4.72856C-2.13117 4.71731 -2.11591 4.71099 -2.1 4.71099H3C3.0276 4.71374 3.05547 4.711 3.08201 4.70293C3.10854 4.69485 3.13322 4.68159 3.1546 4.66393C3.17599 4.64626 3.19366 4.62454 3.2066 4.6C3.21954 4.57547 3.22749 4.54861 3.23 4.52099V0.200988C3.2249 0.144404 3.19812 0.0919844 3.15525 0.0547049C3.11238 0.0174255 3.05674 -0.00182367 3 0.000987686H-13C-13.0289 -0.00176132 -13.0581 0.00124195 -13.0858 0.00982423C-13.1136 0.0184065 -13.1394 0.0323979 -13.1617 0.0509913C-13.184 0.0695847 -13.2024 0.0924121 -13.2158 0.118156C-13.2293 0.143901 -13.2375 0.172053 -13.24 0.200988V4.52099C-13.2325 4.57762 -13.2033 4.62911 -13.1585 4.66457C-13.1137 4.70003 -13.0568 4.71668 -13 4.71099H-8C-7.98409 4.71099 -7.96882 4.71731 -7.95757 4.72856C-7.94632 4.73981 -7.94 4.75507 -7.94 4.77099V6.51099C-7.94 6.51099 -7.94 6.58099 -8 6.58099H-20.84C-20.8568 6.57857 -20.8721 6.57014 -20.8832 6.55726C-20.8942 6.54439 -20.9002 6.52794 -20.9 6.51099V4.77099C-20.9 4.76311 -20.8984 4.75531 -20.8954 4.74803C-20.8924 4.74075 -20.888 4.73413 -20.8824 4.72856C-20.8769 4.72299 -20.8702 4.71857 -20.863 4.71555C-20.8557 4.71254 -20.8479 4.71099 -20.84 4.71099H-15.74C-15.7124 4.71374 -15.6845 4.711 -15.658 4.70293C-15.6315 4.69485 -15.6068 4.68159 -15.5854 4.66393C-15.564 4.64626 -15.5463 4.62454 -15.5334 4.6C-15.5205 4.57547 -15.5125 4.54861 -15.51 4.52099V0.200988C-15.5151 0.144404 -15.5419 0.0919844 -15.5848 0.0547049C-15.6276 0.0174255 -15.6833 -0.00182367 -15.74 0.000987686H-31.77C-31.8267 -0.00182367 -31.8824 0.0174255 -31.9252 0.0547049C-31.9681 0.0919844 -31.9949 0.144404 -32 0.200988V4.52099C-31.9975 4.54861 -31.9895 4.57547 -31.9766 4.6C-31.9637 4.62454 -31.946 4.64626 -31.9246 4.66393C-31.9032 4.68159 -31.8785 4.69485 -31.852 4.70293C-31.8255 4.711 -31.7976 4.71374 -31.77 4.71099H-26.67C-26.6541 4.71099 -26.6388 4.71731 -26.6276 4.72856C-26.6163 4.73981 -26.61 4.75507 -26.61 4.77099V6.51099C-26.6098 6.52794 -26.6158 6.54439 -26.6268 6.55726C-26.6379 6.57014 -26.6532 6.57857 -26.67 6.58099H-31.75C-31.7823 6.57964 -31.8146 6.58485 -31.8449 6.5963C-31.8752 6.60776 -31.9029 6.62522 -31.9262 6.64765C-31.9496 6.67007 -31.9681 6.69698 -31.9808 6.72677C-31.9935 6.75656 -32 6.78861 -32 6.82099V8.00099" fill="white" fill-opacity="0.15"/>
<path d="M122.89 8.00099C122.947 8.0038 123.002 7.98455 123.045 7.94727C123.088 7.90999 123.115 7.85757 123.12 7.80099V3.48099C123.117 3.45336 123.11 3.42651 123.097 3.40197C123.084 3.37744 123.066 3.35571 123.045 3.33805C123.023 3.32038 122.999 3.30713 122.972 3.29905C122.945 3.29097 122.918 3.28823 122.89 3.29099H117.79C117.774 3.29099 117.759 3.28467 117.748 3.27341C117.736 3.26216 117.73 3.2469 117.73 3.23099V1.49099C117.73 1.47403 117.736 1.45759 117.747 1.44471C117.758 1.43184 117.773 1.42341 117.79 1.42099H130.67C130.67 1.42099 130.73 1.42099 130.73 1.49099V3.23099C130.73 3.2469 130.724 3.26216 130.712 3.27341C130.701 3.28467 130.686 3.29099 130.67 3.29099H125.58C125.523 3.2853 125.466 3.30194 125.422 3.3374C125.377 3.37286 125.348 3.42436 125.34 3.48099V7.80099C125.342 7.82992 125.351 7.85807 125.364 7.88382C125.378 7.90956 125.396 7.93239 125.418 7.95098C125.441 7.96958 125.466 7.98357 125.494 7.99215C125.522 8.00073 125.551 8.00374 125.58 8.00099H141.58C141.637 8.0038 141.692 7.98455 141.735 7.94727C141.778 7.90999 141.805 7.85757 141.81 7.80099V3.48099C141.807 3.45336 141.8 3.42651 141.787 3.40197C141.774 3.37744 141.756 3.35571 141.735 3.33805C141.713 3.32038 141.689 3.30713 141.662 3.29905C141.635 3.29097 141.608 3.28823 141.58 3.29099H136.48C136.464 3.29099 136.449 3.28467 136.438 3.27341C136.426 3.26216 136.42 3.2469 136.42 3.23099V1.49099C136.42 1.47403 136.426 1.45759 136.437 1.44471C136.448 1.43184 136.463 1.42341 136.48 1.42099H149.41C149.429 1.42099 149.446 1.42836 149.46 1.44149C149.473 1.45462 149.48 1.47242 149.48 1.49099V3.23099C149.478 3.24777 149.469 3.2631 149.456 3.27414C149.443 3.28517 149.427 3.29116 149.41 3.29099H144.32C144.292 3.28823 144.265 3.29097 144.238 3.29905C144.211 3.30713 144.187 3.32038 144.165 3.33805C144.144 3.35571 144.126 3.37744 144.113 3.40197C144.1 3.42651 144.092 3.45336 144.09 3.48099V7.80099C144.095 7.85757 144.122 7.90999 144.165 7.94727C144.208 7.98455 144.263 8.0038 144.32 8.00099H160.32C160.349 8.00374 160.378 8.00073 160.406 7.99215C160.434 7.98357 160.459 7.96958 160.482 7.95098C160.504 7.93239 160.522 7.90956 160.536 7.88382C160.549 7.85807 160.557 7.82992 160.56 7.80099V3.48099C160.552 3.42436 160.523 3.37286 160.478 3.3374C160.434 3.30194 160.377 3.2853 160.32 3.29099H155.28C155.264 3.29099 155.249 3.28467 155.238 3.27341C155.226 3.26216 155.22 3.2469 155.22 3.23099V1.49099C155.22 1.49099 155.22 1.42099 155.28 1.42099H168.16C168.177 1.42341 168.192 1.43184 168.203 1.44471C168.214 1.45759 168.22 1.47403 168.22 1.49099V3.23099C168.22 3.2469 168.214 3.26216 168.202 3.27341C168.191 3.28467 168.176 3.29099 168.16 3.29099H163.06C163.032 3.28823 163.005 3.29097 162.978 3.29905C162.951 3.30713 162.927 3.32038 162.905 3.33805C162.884 3.35571 162.866 3.37744 162.853 3.40197C162.84 3.42651 162.833 3.45336 162.83 3.48099V7.80099C162.835 7.85757 162.862 7.90999 162.905 7.94727C162.948 7.98455 163.003 8.0038 163.06 8.00099H179.12C179.177 8.0038 179.232 7.98455 179.275 7.94727C179.318 7.90999 179.345 7.85757 179.35 7.80099V3.48099C179.343 3.42621 179.315 3.37625 179.272 3.34105C179.23 3.30584 179.175 3.28797 179.12 3.29099H174C173.995 3.28187 173.992 3.27152 173.992 3.26099C173.992 3.25046 173.995 3.24011 174 3.23099V1.49099C173.994 1.48035 173.991 1.46828 173.991 1.45599C173.991 1.4437 173.994 1.43163 174 1.42099H186.9C186.917 1.42341 186.932 1.43184 186.943 1.44471C186.954 1.45759 186.96 1.47403 186.96 1.49099V3.23099C186.96 3.23887 186.958 3.24667 186.955 3.25395C186.952 3.26123 186.948 3.26784 186.942 3.27341C186.937 3.27899 186.93 3.28341 186.923 3.28642C186.916 3.28944 186.908 3.29099 186.9 3.29099H181.8C181.745 3.28797 181.69 3.30584 181.648 3.34105C181.605 3.37625 181.577 3.42621 181.57 3.48099V7.80099C181.575 7.85757 181.602 7.90999 181.645 7.94727C181.688 7.98455 181.743 8.0038 181.8 8.00099H197.86C197.917 8.0038 197.972 7.98455 198.015 7.94727C198.058 7.90999 198.085 7.85757 198.09 7.80099V3.48099C198.087 3.45336 198.08 3.42651 198.067 3.40197C198.054 3.37744 198.036 3.35571 198.015 3.33805C197.993 3.32038 197.969 3.30713 197.942 3.29905C197.915 3.29097 197.888 3.28823 197.86 3.29099H192.76C192.744 3.29099 192.729 3.28467 192.718 3.27341C192.706 3.26216 192.7 3.2469 192.7 3.23099V1.49099C192.7 1.47403 192.706 1.45759 192.717 1.44471C192.728 1.43184 192.743 1.42341 192.76 1.42099H205.64C205.64 1.42099 205.7 1.42099 205.7 1.49099V3.23099C205.7 3.2469 205.694 3.26216 205.682 3.27341C205.671 3.28467 205.656 3.29099 205.64 3.29099H200.55C200.493 3.2853 200.436 3.30194 200.392 3.3374C200.347 3.37286 200.318 3.42436 200.31 3.48099V7.80099C200.312 7.82992 200.321 7.85807 200.334 7.88382C200.348 7.90956 200.366 7.93239 200.388 7.95098C200.411 7.96958 200.436 7.98357 200.464 7.99215C200.492 8.00073 200.521 8.00374 200.55 8.00099H216.55C216.607 8.0038 216.662 7.98455 216.705 7.94727C216.748 7.90999 216.775 7.85757 216.78 7.80099V3.48099C216.777 3.45336 216.77 3.42651 216.757 3.40197C216.744 3.37744 216.726 3.35571 216.705 3.33805C216.683 3.32038 216.659 3.30713 216.632 3.29905C216.605 3.29097 216.578 3.28823 216.55 3.29099H211.5C211.484 3.29099 211.469 3.28467 211.458 3.27341C211.446 3.26216 211.44 3.2469 211.44 3.23099V1.49099C211.44 1.47403 211.446 1.45759 211.457 1.44471C211.468 1.43184 211.483 1.42341 211.5 1.42099H224.39C224.407 1.42341 224.422 1.43184 224.433 1.44471C224.444 1.45759 224.45 1.47403 224.45 1.49099V3.23099C224.45 3.2469 224.444 3.26216 224.432 3.27341C224.421 3.28467 224.406 3.29099 224.39 3.29099H219.29C219.262 3.28823 219.235 3.29097 219.208 3.29905C219.181 3.30713 219.157 3.32038 219.135 3.33805C219.114 3.35571 219.096 3.37744 219.083 3.40197C219.07 3.42651 219.062 3.45336 219.06 3.48099V7.80099C219.065 7.85757 219.092 7.90999 219.135 7.94727C219.178 7.98455 219.233 8.0038 219.29 8.00099H235.29C235.319 8.00374 235.348 8.00073 235.376 7.99215C235.404 7.98357 235.429 7.96958 235.452 7.95098C235.474 7.93239 235.492 7.90956 235.506 7.88382C235.519 7.85807 235.527 7.82992 235.53 7.80099V3.48099C235.522 3.42436 235.493 3.37286 235.448 3.3374C235.404 3.30194 235.347 3.2853 235.29 3.29099H230.2C230.184 3.29099 230.169 3.28467 230.158 3.27341C230.146 3.26216 230.14 3.2469 230.14 3.23099V1.49099C230.14 1.49099 230.14 1.42099 230.2 1.42099H243.08C243.097 1.42341 243.112 1.43184 243.123 1.44471C243.134 1.45759 243.14 1.47403 243.14 1.49099V3.23099C243.14 3.2469 243.134 3.26216 243.122 3.27341C243.111 3.28467 243.096 3.29099 243.08 3.29099H238C237.972 3.28823 237.945 3.29097 237.918 3.29905C237.891 3.30713 237.867 3.32038 237.845 3.33805C237.824 3.35571 237.806 3.37744 237.793 3.40197C237.78 3.42651 237.772 3.45336 237.77 3.48099V7.80099C237.775 7.85757 237.802 7.90999 237.845 7.94727C237.888 7.98455 237.943 8.0038 238 8.00099H254.06C254.117 8.0038 254.172 7.98455 254.215 7.94727C254.258 7.90999 254.285 7.85757 254.29 7.80099V3.48099C254.283 3.42621 254.255 3.37625 254.212 3.34105C254.169 3.30584 254.115 3.28797 254.06 3.29099H249C248.984 3.29099 248.969 3.28467 248.958 3.27341C248.946 3.26216 248.94 3.2469 248.94 3.23099V1.49099C248.94 1.49099 248.94 1.42099 249 1.42099H261.88C261.897 1.42341 261.912 1.43184 261.923 1.44471C261.934 1.45759 261.94 1.47403 261.94 1.49099V3.23099C261.94 3.2469 261.934 3.26216 261.922 3.27341C261.911 3.28467 261.896 3.29099 261.88 3.29099H256.78C256.725 3.28797 256.671 3.30584 256.628 3.34105C256.585 3.37625 256.557 3.42621 256.55 3.48099V7.80099C256.555 7.85757 256.582 7.90999 256.625 7.94727C256.668 7.98455 256.723 8.0038 256.78 8.00099H263.41C263.467 8.0038 263.522 7.98455 263.565 7.94727C263.608 7.90999 263.635 7.85757 263.64 7.80099V6.80099C263.638 6.77336 263.63 6.74651 263.617 6.72197C263.604 6.69744 263.586 6.67571 263.565 6.65805C263.543 6.64038 263.519 6.62713 263.492 6.61905C263.465 6.61097 263.438 6.60823 263.41 6.61099H258.31C258.293 6.60857 258.278 6.60013 258.267 6.58726C258.256 6.57439 258.25 6.55794 258.25 6.54099V4.77099C258.25 4.75507 258.256 4.73981 258.268 4.72856C258.279 4.71731 258.294 4.71099 258.31 4.71099H263.41C263.438 4.71374 263.465 4.711 263.492 4.70293C263.519 4.69485 263.543 4.68159 263.565 4.66393C263.586 4.64626 263.604 4.62454 263.617 4.6C263.63 4.57547 263.638 4.54861 263.64 4.52099V0.200988C263.635 0.144404 263.608 0.0919844 263.565 0.0547049C263.522 0.0174255 263.467 -0.00182367 263.41 0.000987686H247.41C247.353 -0.00182367 247.298 0.0174255 247.255 0.0547049C247.212 0.0919844 247.185 0.144404 247.18 0.200988V4.52099C247.182 4.54861 247.19 4.57547 247.203 4.6C247.216 4.62454 247.234 4.64626 247.255 4.66393C247.277 4.68159 247.301 4.69485 247.328 4.70293C247.355 4.711 247.382 4.71374 247.41 4.71099H252.51C252.526 4.71099 252.541 4.71731 252.552 4.72856C252.564 4.73981 252.57 4.75507 252.57 4.77099V6.51099C252.57 6.52794 252.564 6.54439 252.553 6.55726C252.542 6.57014 252.527 6.57857 252.51 6.58099H239.62C239.62 6.58099 239.56 6.58099 239.56 6.51099V4.77099C239.56 4.75507 239.566 4.73981 239.578 4.72856C239.589 4.71731 239.604 4.71099 239.62 4.71099H244.71C244.767 4.71668 244.824 4.70003 244.868 4.66457C244.913 4.62911 244.943 4.57762 244.95 4.52099V0.200988C244.948 0.172053 244.939 0.143901 244.926 0.118156C244.912 0.0924121 244.894 0.0695847 244.872 0.0509913C244.849 0.0323979 244.824 0.0184065 244.796 0.00982423C244.768 0.00124195 244.739 -0.00176132 244.71 0.000987686H228.66C228.603 -0.00182367 228.548 0.0174255 228.505 0.0547049C228.462 0.0919844 228.435 0.144404 228.43 0.200988V4.52099C228.432 4.54861 228.44 4.57547 228.453 4.6C228.466 4.62454 228.484 4.64626 228.505 4.66393C228.527 4.68159 228.551 4.69485 228.578 4.70293C228.605 4.711 228.632 4.71374 228.66 4.71099H233.76C233.776 4.71099 233.791 4.71731 233.802 4.72856C233.814 4.73981 233.82 4.75507 233.82 4.77099V6.51099C233.82 6.52794 233.814 6.54439 233.803 6.55726C233.792 6.57014 233.777 6.57857 233.76 6.58099H220.87C220.853 6.57857 220.838 6.57014 220.827 6.55726C220.816 6.54439 220.81 6.52794 220.81 6.51099V4.77099C220.81 4.75507 220.816 4.73981 220.828 4.72856C220.839 4.71731 220.854 4.71099 220.87 4.71099H226C226.028 4.71374 226.055 4.711 226.082 4.70293C226.109 4.69485 226.133 4.68159 226.155 4.66393C226.176 4.64626 226.194 4.62454 226.207 4.6C226.22 4.57547 226.228 4.54861 226.23 4.52099V0.200988C226.225 0.144404 226.198 0.0919844 226.155 0.0547049C226.112 0.0174255 226.057 -0.00182367 226 0.000987686H210C209.971 -0.00176132 209.942 0.00124195 209.914 0.00982423C209.886 0.0184065 209.861 0.0323979 209.838 0.0509913C209.816 0.0695847 209.798 0.0924121 209.784 0.118156C209.771 0.143901 209.763 0.172053 209.76 0.200988V4.52099C209.768 4.57762 209.797 4.62911 209.842 4.66457C209.886 4.70003 209.943 4.71668 210 4.71099H215C215.017 4.71081 215.033 4.7168 215.046 4.72784C215.059 4.73887 215.068 4.7542 215.07 4.77099V6.51099C215.07 6.52018 215.068 6.52928 215.065 6.53778C215.061 6.54627 215.056 6.55398 215.049 6.56048C215.043 6.56699 215.035 6.57214 215.027 6.57566C215.018 6.57918 215.009 6.58099 215 6.58099H202.13C202.113 6.57857 202.098 6.57014 202.087 6.55726C202.076 6.54439 202.07 6.52794 202.07 6.51099V4.77099C202.07 4.75507 202.076 4.73981 202.088 4.72856C202.099 4.71731 202.114 4.71099 202.13 4.71099H207.23C207.258 4.71374 207.285 4.711 207.312 4.70293C207.339 4.69485 207.363 4.68159 207.385 4.66393C207.406 4.64626 207.424 4.62454 207.437 4.6C207.45 4.57547 207.457 4.54861 207.46 4.52099V0.200988C207.455 0.144404 207.428 0.0919844 207.385 0.0547049C207.342 0.0174255 207.287 -0.00182367 207.23 0.000987686H191.17C191.113 -0.00182367 191.058 0.0174255 191.015 0.0547049C190.972 0.0919844 190.945 0.144404 190.94 0.200988V4.52099C190.947 4.57576 190.975 4.62572 191.018 4.66093C191.061 4.69613 191.115 4.71401 191.17 4.71099H196.27C196.278 4.71099 196.286 4.71254 196.293 4.71555C196.3 4.71857 196.307 4.72299 196.312 4.72856C196.318 4.73413 196.322 4.74075 196.325 4.74803C196.328 4.75531 196.33 4.76311 196.33 4.77099V6.51099C196.33 6.51099 196.33 6.58099 196.27 6.58099H183.39C183.373 6.57857 183.358 6.57014 183.347 6.55726C183.336 6.54439 183.33 6.52794 183.33 6.51099V4.77099C183.33 4.75507 183.336 4.73981 183.348 4.72856C183.359 4.71731 183.374 4.71099 183.39 4.71099H188.49C188.545 4.71401 188.6 4.69613 188.642 4.66093C188.685 4.62572 188.713 4.57576 188.72 4.52099V0.200988C188.715 0.144404 188.688 0.0919844 188.645 0.0547049C188.602 0.0174255 188.547 -0.00182367 188.49 0.000987686H172.43C172.373 -0.00182367 172.318 0.0174255 172.275 0.0547049C172.232 0.0919844 172.205 0.144404 172.2 0.200988V4.52099C172.202 4.54861 172.21 4.57547 172.223 4.6C172.236 4.62454 172.254 4.64626 172.275 4.66393C172.297 4.68159 172.321 4.69485 172.348 4.70293C172.375 4.711 172.402 4.71374 172.43 4.71099H177.53C177.546 4.71099 177.561 4.71731 177.572 4.72856C177.584 4.73981 177.59 4.75507 177.59 4.77099V6.51099C177.59 6.52794 177.584 6.54439 177.573 6.55726C177.562 6.57014 177.547 6.57857 177.53 6.58099H164.65C164.65 6.58099 164.59 6.58099 164.59 6.51099V4.77099C164.59 4.75507 164.596 4.73981 164.608 4.72856C164.619 4.71731 164.634 4.71099 164.65 4.71099H169.74C169.77 4.71669 169.8 4.71623 169.83 4.70962C169.859 4.70301 169.887 4.6904 169.911 4.67257C169.936 4.65475 169.956 4.63209 169.971 4.60601C169.987 4.57993 169.996 4.55099 170 4.52099V0.200988C169.997 0.172053 169.989 0.143901 169.976 0.118156C169.962 0.0924121 169.944 0.0695847 169.922 0.0509913C169.899 0.0323979 169.874 0.0184065 169.846 0.00982423C169.818 0.00124195 169.789 -0.00176132 169.76 0.000987686H153.69C153.633 -0.00182367 153.578 0.0174255 153.535 0.0547049C153.492 0.0919844 153.465 0.144404 153.46 0.200988V4.52099C153.462 4.54861 153.47 4.57547 153.483 4.6C153.496 4.62454 153.514 4.64626 153.535 4.66393C153.557 4.68159 153.581 4.69485 153.608 4.70293C153.635 4.711 153.662 4.71374 153.69 4.71099H158.79C158.806 4.71099 158.821 4.71731 158.832 4.72856C158.844 4.73981 158.85 4.75507 158.85 4.77099V6.51099C158.85 6.52794 158.844 6.54439 158.833 6.55726C158.822 6.57014 158.807 6.57857 158.79 6.58099H145.9C145.883 6.57857 145.868 6.57014 145.857 6.55726C145.846 6.54439 145.84 6.52794 145.84 6.51099V4.77099C145.84 4.75507 145.846 4.73981 145.858 4.72856C145.869 4.71731 145.884 4.71099 145.9 4.71099H151C151.028 4.71374 151.055 4.711 151.082 4.70293C151.109 4.69485 151.133 4.68159 151.155 4.66393C151.176 4.64626 151.194 4.62454 151.207 4.6C151.22 4.57547 151.227 4.54861 151.23 4.52099V0.200988C151.225 0.144404 151.198 0.0919844 151.155 0.0547049C151.112 0.0174255 151.057 -0.00182367 151 0.000987686H135C134.971 -0.00176132 134.942 0.00124195 134.914 0.00982423C134.886 0.0184065 134.861 0.0323979 134.838 0.0509913C134.816 0.0695847 134.798 0.0924121 134.784 0.118156C134.771 0.143901 134.763 0.172053 134.76 0.200988V4.52099C134.768 4.57762 134.797 4.62911 134.842 4.66457C134.886 4.70003 134.943 4.71668 135 4.71099H140C140.016 4.71099 140.031 4.71731 140.042 4.72856C140.054 4.73981 140.06 4.75507 140.06 4.77099V6.51099C140.06 6.51099 140.06 6.58099 140 6.58099H127.16C127.143 6.57857 127.128 6.57014 127.117 6.55726C127.106 6.54439 127.1 6.52794 127.1 6.51099V4.77099C127.1 4.76311 127.102 4.75531 127.105 4.74803C127.108 4.74075 127.112 4.73413 127.118 4.72856C127.123 4.72299 127.13 4.71857 127.137 4.71555C127.144 4.71254 127.152 4.71099 127.16 4.71099H132.26C132.288 4.71374 132.315 4.711 132.342 4.70293C132.369 4.69485 132.393 4.68159 132.415 4.66393C132.436 4.64626 132.454 4.62454 132.467 4.6C132.48 4.57547 132.487 4.54861 132.49 4.52099V0.200988C132.485 0.144404 132.458 0.0919844 132.415 0.0547049C132.372 0.0174255 132.317 -0.00182367 132.26 0.000987686H116.23C116.173 -0.00182367 116.118 0.0174255 116.075 0.0547049C116.032 0.0919844 116.005 0.144404 116 0.200988V4.52099C116.003 4.54861 116.01 4.57547 116.023 4.6C116.036 4.62454 116.054 4.64626 116.075 4.66393C116.097 4.68159 116.121 4.69485 116.148 4.70293C116.175 4.711 116.202 4.71374 116.23 4.71099H121.33C121.346 4.71099 121.361 4.71731 121.372 4.72856C121.384 4.73981 121.39 4.75507 121.39 4.77099V6.51099C121.39 6.52794 121.384 6.54439 121.373 6.55726C121.362 6.57014 121.347 6.57857 121.33 6.58099H116.25C116.218 6.57964 116.185 6.58485 116.155 6.5963C116.125 6.60776 116.097 6.62522 116.074 6.64765C116.05 6.67007 116.032 6.69698 116.019 6.72677C116.007 6.75656 116 6.78861 116 6.82099V8.00099" fill="white" fill-opacity="0.15"/>
</svg>
